<svg width="40" height="71" viewBox="0 0 20 71" fill="none" xmlns="http://www.w3.org/2000/svg">
<g clip-path="url(#clip0_1_594)">
<path d="M0.119995 29.5631V41.4369H5.75706C6.29678 41.4369 9.8949 41.317 9.8949 38.0187C9.8949 35.9198 8.45565 35.2002 7.73603 35.0203C8.27575 34.7804 9.29521 34.1807 9.29521 32.5615C9.29521 31.662 9.17528 29.6231 5.57715 29.6231H0.119995V29.5631ZM13.0133 30.7025V31.782H17.391V30.7025H13.0133ZM2.69865 31.602H5.0974C5.33728 31.602 6.8365 31.4821 6.8365 32.9813C6.8365 34.2407 5.75706 34.3606 5.27731 34.3606H2.69865V31.602ZM15.2921 32.7415C11.9938 32.7415 11.2742 35.62 11.2742 36.8793C11.2742 40.5974 14.2726 41.0171 15.2921 41.0171C17.9307 41.0171 18.6503 39.278 18.9502 38.3785H17.0312C16.9712 38.6184 16.4315 39.398 15.3521 39.398C13.613 39.398 13.4331 38.0187 13.4331 37.359H19.0701C19.1901 35.2601 18.2306 32.7415 15.2921 32.7415ZM15.2321 34.3606C15.7718 34.3606 16.1916 34.5405 16.4315 34.7804C16.6714 35.0802 16.8513 35.5 16.9112 36.0397H13.4331C13.4331 35.8598 13.493 35.7399 13.553 35.5C13.613 35.3201 13.6729 35.1402 13.8528 34.9603C13.9728 34.8404 14.1527 34.6605 14.3926 34.5405C14.6324 34.4206 14.8723 34.3606 15.2321 34.3606ZM2.69865 36.1597H5.51718C6.0569 36.1597 7.37621 36.2196 7.37621 37.8388C7.37621 39.398 5.75706 39.398 5.45721 39.398H2.69865V36.1597Z" fill="white"/>
</g>
<defs>
<clipPath id="clip0_1_594">
<rect width="19.19" height="12.1137" fill="white" transform="translate(0 29.4431)"/>
</clipPath>
</defs>
</svg>
