<svg width="45" height="45" viewBox="0 0 45 45" fill="none" xmlns="http://www.w3.org/2000/svg">
<rect y="6.10352e-05" width="45" height="45" rx="22.5" fill="#12141D"/>
<g clip-path="url(#clip0_1_114)">
<path d="M16.875 24.0001C16.7755 24.0001 16.6802 24.0396 16.6098 24.1099C16.5395 24.1802 16.5 24.2756 16.5 24.3751C16.5 24.4745 16.5395 24.5699 16.6098 24.6402C16.6802 24.7106 16.7755 24.7501 16.875 24.7501H17.5076C17.4725 24.5014 17.4517 24.251 17.4452 24.0001H16.875Z" fill="white"/>
<path d="M31.1943 28.7194C31.1246 28.6498 31.0419 28.5946 30.9508 28.5569C30.8598 28.5193 30.7622 28.5 30.6637 28.5001C30.5754 28.5007 30.4879 28.5166 30.4049 28.5469L28.8599 27.0019C29.6415 25.8097 29.9573 24.3717 29.747 22.9618C29.5368 21.5518 28.8152 20.2684 27.7199 19.3561C26.6245 18.4438 25.2317 17.9663 23.807 18.0146C22.3823 18.0629 21.0251 18.6336 19.994 19.6179C18.9628 20.6023 18.3298 21.9315 18.2155 23.3525C18.1012 24.7734 18.5135 26.1868 19.374 27.3233C20.2345 28.4599 21.483 29.2402 22.8817 29.5156C24.2804 29.7911 25.7315 29.5424 26.9587 28.8169L28.5468 30.4051C28.4969 30.5393 28.4866 30.6851 28.5172 30.8251C28.5478 30.965 28.6179 31.0932 28.7193 31.1944L31.5131 33.9882C31.8413 34.3164 32.2864 34.5008 32.7506 34.5008C33.2147 34.5008 33.6599 34.3164 33.9881 33.9882C34.3163 33.66 34.5007 33.2148 34.5007 32.7507C34.5007 32.2865 34.3163 31.8414 33.9881 31.5132L31.1943 28.7194ZM26.4543 21.1932C26.0841 20.8537 25.6518 20.5889 25.1812 20.4132C25.1352 20.3959 25.093 20.3698 25.057 20.3363C25.0211 20.3027 24.9921 20.2624 24.9717 20.2177C24.9513 20.1729 24.94 20.1246 24.9383 20.0755C24.9366 20.0263 24.9446 19.9773 24.9618 19.9313C24.9791 19.8853 25.0052 19.8431 25.0387 19.8071C25.0723 19.7712 25.1126 19.7422 25.1573 19.7218C25.2021 19.7014 25.2504 19.6901 25.2995 19.6884C25.3487 19.6867 25.3977 19.6947 25.4437 19.7119C26.006 19.9195 26.522 20.2355 26.9624 20.6419C27.7522 21.3576 28.2357 22.3502 28.3124 23.4132C28.3183 23.5125 28.2848 23.6101 28.2191 23.6849C28.1535 23.7596 28.0611 23.8055 27.9618 23.8126H27.9374C27.8421 23.8127 27.7503 23.7765 27.6806 23.7114C27.611 23.6463 27.5687 23.5571 27.5624 23.4619C27.4995 22.5911 27.1025 21.7782 26.4543 21.1932ZM29.0277 29.8249L27.5875 28.3846C27.7706 28.241 27.945 28.0867 28.1099 27.9225C28.2122 27.8203 28.3088 27.7139 28.4024 27.6055L29.8249 29.0279L29.0277 29.8249Z" fill="white"/>
<path d="M23.4375 13.6876C23.6446 13.6876 23.8125 13.5197 23.8125 13.3126C23.8125 13.1055 23.6446 12.9376 23.4375 12.9376C23.2304 12.9376 23.0625 13.1055 23.0625 13.3126C23.0625 13.5197 23.2304 13.6876 23.4375 13.6876Z" fill="white"/>
<path d="M18 13.6876C18.2071 13.6876 18.375 13.5197 18.375 13.3126C18.375 13.1055 18.2071 12.9376 18 12.9376C17.7929 12.9376 17.625 13.1055 17.625 13.3126C17.625 13.5197 17.7929 13.6876 18 13.6876Z" fill="white"/>
<path d="M11.625 22.8751H17.505C17.5404 22.6222 17.5912 22.3718 17.6569 22.1251H11.625C11.5256 22.1248 11.4304 22.0852 11.3602 22.0149C11.2899 21.9446 11.2503 21.8494 11.25 21.7501V19.8751H18.75C18.9367 19.6269 19.1403 19.392 19.3594 19.1719C19.7427 18.7873 20.1723 18.4516 20.6381 18.1726C20.3734 18.1312 20.1321 17.9967 19.9578 17.7931C19.7835 17.5896 19.6876 17.3305 19.6875 17.0626C19.687 16.8408 19.7529 16.624 19.8769 16.4401L18.3356 14.3869C18.117 14.4544 17.883 14.4544 17.6644 14.3869L15.4875 17.2876C15.458 17.327 15.4209 17.3601 15.3786 17.3852C15.3362 17.4103 15.2893 17.4268 15.2405 17.4338C15.1918 17.4408 15.1421 17.4381 15.0944 17.4258C15.0467 17.4136 15.0019 17.3921 14.9625 17.3626C14.9231 17.333 14.8899 17.296 14.8648 17.2536C14.8397 17.2112 14.8232 17.1643 14.8163 17.1156C14.8093 17.0668 14.812 17.0172 14.8242 16.9695C14.8365 16.9218 14.858 16.877 14.8875 16.8376L17.0644 13.9351C16.9404 13.7512 16.8745 13.5343 16.875 13.3126C16.875 13.0142 16.9935 12.728 17.2045 12.5171C17.4155 12.3061 17.7016 12.1876 18 12.1876C18.2984 12.1876 18.5845 12.3061 18.7955 12.5171C19.0065 12.728 19.125 13.0142 19.125 13.3126C19.1255 13.5343 19.0596 13.7512 18.9356 13.9351L20.4769 15.9882C20.6955 15.9207 20.9295 15.9207 21.1481 15.9882L22.5975 14.0588C22.4271 13.8663 22.3278 13.6212 22.3162 13.3644C22.3047 13.1075 22.3815 12.8545 22.534 12.6475C22.6865 12.4404 22.9053 12.292 23.154 12.2268C23.4028 12.1617 23.6663 12.1838 23.9007 12.2895C24.1351 12.3951 24.3261 12.578 24.442 12.8075C24.5578 13.0371 24.5914 13.2994 24.5373 13.5507C24.4831 13.802 24.3443 14.0272 24.1442 14.1886C23.944 14.35 23.6946 14.4379 23.4375 14.4376C23.3784 14.4373 23.3195 14.4323 23.2612 14.4226L21.7481 16.4401C21.8721 16.624 21.938 16.8408 21.9375 17.0626C21.9386 17.264 21.8841 17.4619 21.78 17.6344C22.9518 17.2151 24.2186 17.137 25.4331 17.4092C26.6475 17.6814 27.7598 18.2926 28.6406 19.1719C28.7213 19.2526 28.7981 19.3351 28.875 19.4194V11.6251C28.8748 11.3268 28.7562 11.0408 28.5452 10.8298C28.3343 10.6189 28.0483 10.5003 27.75 10.5001H11.625C11.3267 10.5003 11.0407 10.6189 10.8298 10.8298C10.6188 11.0408 10.5002 11.3268 10.5 11.6251V21.7501C10.5002 22.0484 10.6188 22.3344 10.8298 22.5453C11.0407 22.7562 11.3267 22.8748 11.625 22.8751ZM12 13.1251C12.0002 12.8268 12.1188 12.5408 12.3298 12.3298C12.5407 12.1189 12.8267 12.0003 13.125 12.0001H14.25C14.3495 12.0001 14.4448 12.0396 14.5152 12.1099C14.5855 12.1802 14.625 12.2756 14.625 12.3751C14.625 12.4745 14.5855 12.5699 14.5152 12.6402C14.4448 12.7106 14.3495 12.7501 14.25 12.7501H13.125C13.0256 12.7504 12.9304 12.79 12.8602 12.8602C12.7899 12.9305 12.7503 13.0257 12.75 13.1251V13.8751C12.75 13.9745 12.7105 14.0699 12.6402 14.1402C12.5698 14.2106 12.4745 14.2501 12.375 14.2501C12.2755 14.2501 12.1802 14.2106 12.1098 14.1402C12.0395 14.0699 12 13.9745 12 13.8751V13.1251Z" fill="white"/>
<path d="M20.8125 17.4376C21.0196 17.4376 21.1875 17.2697 21.1875 17.0626C21.1875 16.8555 21.0196 16.6876 20.8125 16.6876C20.6054 16.6876 20.4375 16.8555 20.4375 17.0626C20.4375 17.2697 20.6054 17.4376 20.8125 17.4376Z" fill="white"/>
</g>
<defs>
<clipPath id="clip0_1_114">
<rect width="24" height="24" fill="white" transform="translate(10.5 10.5001)"/>
</clipPath>
</defs>
</svg>
