<svg width="17" height="17" viewBox="0 0 17 17" fill="none" xmlns="http://www.w3.org/2000/svg">
<g clip-path="url(#clip0_1_591)">
<path d="M0.589966 2.63122C0.589966 2.11666 0.770446 1.6917 1.13077 1.35698C1.49109 1.02226 1.95957 0.855225 2.53621 0.855225C3.10261 0.855225 3.56085 1.0197 3.91093 1.3493C4.27125 1.68914 4.45173 2.13202 4.45173 2.6773C4.45173 3.17138 4.27701 3.58354 3.92693 3.91314C3.56661 4.25298 3.09301 4.42259 2.50613 4.42259H2.49077C1.92437 4.42259 1.46613 4.25298 1.11605 3.91314C0.765966 3.5733 0.589966 3.14578 0.589966 2.63122ZM0.790926 16.1448V5.82802H4.21941V16.1448H0.790926ZM6.11893 16.1448H9.54741V10.3842C9.54741 10.0239 9.58837 9.74611 9.67093 9.55027C9.81493 9.20018 10.0338 8.90386 10.3276 8.66195C10.6207 8.42003 10.9893 8.29906 11.4316 8.29906C12.5848 8.29906 13.1615 9.07666 13.1615 10.6312V16.1448H16.59V10.2299C16.59 8.70611 16.2296 7.55026 15.509 6.76306C14.7884 5.97522 13.836 5.58162 12.652 5.58162C11.324 5.58162 10.2892 6.15314 9.54805 7.29619V7.3269H9.53269L9.54805 7.29619V5.82802H6.11893C6.13941 6.15762 6.14965 7.18162 6.14965 8.9013C6.14965 10.621 6.13941 13.0357 6.11893 16.1448Z" fill="white"/>
</g>
<defs>
<clipPath id="clip0_1_591">
<rect width="16" height="15.2896" fill="white" transform="translate(0.589966 0.855225)"/>
</clipPath>
</defs>
</svg>
